<svg width="370" height="106" viewBox="0 0 370 106" fill="none" xmlns="http://www.w3.org/2000/svg">
<path d="M36.25 82.5C28.3333 82.4167 22.3333 79.1667 18.25 72.75L17.25 81.25H0V78C2.16667 78 3.83333 77.8333 5 77.5C7.33333 76.75 8.5 74.5417 8.5 70.875V3.25H0V0H20.5V40.25C20.5 40.1667 20.5417 40.0417 20.625 39.875C24.7083 30.875 31.3333 26.375 40.5 26.375C45.5 26.375 49.875 28 53.625 31.25C59.2083 36.3333 62 43.7083 62 53.375C62 61.625 59.7083 68.4583 55.125 73.875C50.2083 79.625 43.9167 82.5 36.25 82.5ZM35.75 31.75C32.8333 31.75 30.2083 32.75 27.875 34.75C22.9583 39.0833 20.5 46.5 20.5 57C20.5 61.3333 21 65.1667 22 68.5C24.25 75.6667 28.4167 79.25 34.5 79.25C36.25 79.25 37.875 78.875 39.375 78.125C45.625 75.2083 48.75 67.375 48.75 54.625C48.75 52.125 48.625 49.75 48.375 47.5C47.0417 37 42.8333 31.75 35.75 31.75ZM84.125 54.375C84.125 57.125 84.25 59.625 84.5 61.875C85.6667 73.5417 90.4167 79.375 98.75 79.375C108.167 79.2083 112.958 70.7083 113.125 53.875C113.125 50.625 112.958 47.6667 112.625 45C111.208 34.6667 106.542 29.5 98.625 29.5C89.7917 30.1667 84.9583 38.4583 84.125 54.375ZM99 26.375C105.167 26.375 110.625 28 115.375 31.25C122.708 36.4167 126.375 44.0417 126.375 54.125C126.375 61.625 124.083 68 119.5 73.25C114.083 79.4167 107.042 82.5 98.375 82.5C92.0417 82.5 86.4583 80.6667 81.625 77C74.4583 71.6667 70.875 63.9583 70.875 53.875C70.875 46.625 73.0833 40.5 77.5 35.5C82.9167 29.4167 90.0833 26.375 99 26.375ZM163.875 78.125C164.458 78.125 164.958 78.1667 165.375 78.25C166.458 78.4167 167 79.4167 167 81.25H134.25V78.125C136.417 78.125 138.042 77.9583 139.125 77.625C141.542 76.9583 142.75 74.75 142.75 71V31H134.25V27.875H153.875L154.5 40C155.5 37.5 156.917 35.25 158.75 33.25C162.75 29.0833 167.25 27 172.25 27C173.167 27 174.083 27.0833 175 27.25C178.917 28.25 180.875 30.7083 180.875 34.625C180.875 35.375 180.75 36.125 180.5 36.875C179.5 39.625 177.542 41 174.625 41C173.958 41 173.333 40.9167 172.75 40.75C171.333 40.25 169.917 38.75 168.5 36.25C167.333 34.25 166.167 33.25 165 33.25C163.917 33.3333 162.708 33.9583 161.375 35.125C156.958 39.0417 154.75 45.3333 154.75 54V78.125H163.875ZM211.5 78.125C212.083 78.125 212.583 78.1667 213 78.25C214.083 78.4167 214.625 79.4167 214.625 81.25H185V78.125C187.083 78.125 188.708 78 189.875 77.75C192.542 77 193.875 74.75 193.875 71V31H185V27.875H205.875V78.125H211.5ZM207.25 10.375C207.25 11.625 207 12.7917 206.5 13.875C205.083 16.7083 202.708 18.125 199.375 18.125C198.208 18.125 197.083 17.875 196 17.375C193.083 16.0417 191.625 13.7083 191.625 10.375C191.625 9.125 191.917 7.91667 192.5 6.75C193.917 3.91667 196.208 2.5 199.375 2.5C200.625 2.5 201.833 2.79167 203 3.375C205.833 4.875 207.25 7.20833 207.25 10.375ZM246.125 78.125C246.708 78.125 247.208 78.1667 247.625 78.25C248.708 78.4167 249.25 79.4167 249.25 81.25H221V78.125C223.083 78.125 224.708 77.9583 225.875 77.625C228.292 76.9583 229.5 74.75 229.5 71V31H221V27.875H240.75L241.375 39.125C242.208 37.2083 243.292 35.4167 244.625 33.75C248.792 28.8333 253.958 26.375 260.125 26.375C263.042 26.375 265.708 27.0417 268.125 28.375C274.292 31.625 277.375 37.7083 277.375 46.625V78.125H282.75C283.333 78.125 283.833 78.1667 284.25 78.25C285.333 78.4167 285.875 79.4167 285.875 81.25H257.375V78.125C259.458 78.125 261.083 77.9583 262.25 77.625C264.25 76.875 265.25 74.6667 265.25 71V45C265.25 43.1667 265.042 41.4167 264.625 39.75C263.208 34.75 260 32.25 255 32.25C253.167 32.25 251.375 32.75 249.625 33.75C244.875 36.5 242.208 41.25 241.625 48L241.5 78.125H246.125ZM306.75 46.625C306.75 49.625 306.917 52.1667 307.25 54.25C308.417 60.75 311.875 64 317.625 64C319.458 64 321.083 63.7083 322.5 63.125C326.583 61.2083 328.625 55.6667 328.625 46.5C328.625 43.5 328.417 40.9167 328 38.75C326.917 32.5833 323.5 29.5 317.75 29.5C316.083 29.5 314.583 29.75 313.25 30.25C308.917 32 306.75 37.4583 306.75 46.625ZM318 26.375C322.917 26.375 327.333 27.4583 331.25 29.625C331.667 28.2083 332.25 26.875 333 25.625C335.417 21.7083 338.625 19.75 342.625 19.75C343.792 19.75 344.917 19.9583 346 20.375C348.667 21.4583 350 23.375 350 26.125C350 26.375 349.958 26.6667 349.875 27C349.458 29.25 348.125 30.375 345.875 30.375C344.958 30.375 344 29.9167 343 29C341.5 27.6667 340.208 27 339.125 27C336.792 27.0833 335.042 28.5417 333.875 31.375C338.542 35.0417 340.917 40.0417 341 46.375C341 51.125 339.542 55.3333 336.625 59C332.042 64.5 325.708 67.25 317.625 67.25H317.25L305.625 67.125C305.125 67.125 304.583 67.1667 304 67.25C301.583 67.75 300.375 69 300.375 71C300.458 73.6667 302.167 75.125 305.5 75.375L329.5 75.875C330.583 75.875 331.708 75.9583 332.875 76.125C341.542 77.2083 345.875 81.625 345.875 89.375C345.875 91.7083 345.208 93.875 343.875 95.875C339.875 102.125 331.333 105.25 318.25 105.25C313 105.25 308.5 104.5 304.75 103C299.167 100.75 296.375 97.3333 296.375 92.75C296.375 89.9167 297.625 87.1667 300.125 84.5C296.875 82.1667 295.208 78.875 295.125 74.625C295.125 73.2083 295.375 71.8333 295.875 70.5C297.458 66.0833 300.708 63.875 305.625 63.875C304.875 63.4583 304.125 62.9583 303.375 62.375C297.375 58.0417 294.375 52.7917 294.375 46.625C294.375 41.9583 295.792 37.9167 298.625 34.5C303.125 29.0833 309.583 26.375 318 26.375ZM318.25 102C322.25 102 325.917 101.625 329.25 100.875C336.333 99.2083 339.875 96.5 339.875 92.75C339.875 92 339.75 91.2917 339.5 90.625C338.667 88.2083 335.333 87 329.5 87L307.75 86.75C306.083 86.75 304.542 86.5 303.125 86C301.542 88 300.708 90.0417 300.625 92.125C300.625 93.2083 300.875 94.25 301.375 95.25C303.542 99.75 309.167 102 318.25 102ZM369.625 74.5C369.625 75.5833 369.375 76.6667 368.875 77.75C367.458 80.5 365.25 81.875 362.25 81.875C361.167 81.875 360.125 81.6667 359.125 81.25C356.292 79.9167 354.875 77.6667 354.875 74.5C354.875 73.4167 355.125 72.3333 355.625 71.25C356.958 68.4167 359.167 67 362.25 67C363.417 67 364.542 67.2917 365.625 67.875C368.292 69.2917 369.625 71.5 369.625 74.5Z" fill="black"/>
</svg>
